<svg width="19" height="18" viewBox="0 0 19 18" fill="none" xmlns="http://www.w3.org/2000/svg">
<mask id="mask0_5_15025" style="mask-type:alpha" maskUnits="userSpaceOnUse" x="0" y="0" width="19" height="18">
<rect x="0.199219" y="0.100098" width="18" height="17.7662" fill="white"/>
</mask>
<g mask="url(#mask0_5_15025)">
<path fill-rule="evenodd" clip-rule="evenodd" d="M9.19922 1.58057C5.05709 1.58057 1.69923 4.89481 1.69922 8.98314C1.69921 13.0715 5.05705 16.3857 9.19918 16.3857C13.3413 16.3858 16.6992 13.0715 16.6992 8.9832C16.6992 4.89487 13.3414 1.5806 9.19926 1.58057H9.19922Z" fill="#29B6F6"/>
<path fill-rule="evenodd" clip-rule="evenodd" d="M12.9344 5.65199L11.5296 12.7311C11.5296 12.7311 11.4693 13.0546 11.0628 13.0546C10.8468 13.0546 10.7354 12.9532 10.7354 12.9532L7.69263 10.4611L6.20388 9.72046L4.29325 9.21893C4.29325 9.21893 3.95312 9.12196 3.95312 8.84436C3.95312 8.61303 4.303 8.50273 4.303 8.50273L12.2965 5.36847C12.2961 5.3681 12.5406 5.28149 12.7188 5.28186C12.8283 5.28186 12.9531 5.32813 12.9531 5.46693C12.9531 5.55946 12.9344 5.65199 12.9344 5.65199Z" fill="white"/>
<path fill-rule="evenodd" clip-rule="evenodd" d="M8.8255 11.391L7.54075 12.6398C7.54075 12.6398 7.48487 12.6823 7.41025 12.6842C7.38437 12.6849 7.35663 12.6809 7.32812 12.6683L7.68963 10.4604L8.8255 11.391Z" fill="#B0BEC5"/>
<path fill-rule="evenodd" clip-rule="evenodd" d="M11.4106 6.83496C11.3472 6.75353 11.2302 6.73872 11.1477 6.80053L6.19922 9.72345C6.19922 9.72345 6.98897 11.9043 7.10934 12.2818C7.23009 12.6597 7.32684 12.6686 7.32684 12.6686L7.68834 10.4607L11.3753 7.09405C11.4578 7.03224 11.4732 6.91639 11.4106 6.83496Z" fill="#CFD8DC"/>
</g>
</svg>
