<svg width="19" height="18" viewBox="0 0 19 18" fill="none" xmlns="http://www.w3.org/2000/svg">
<mask id="mask0_5_15016" style="mask-type:alpha" maskUnits="userSpaceOnUse" x="0" y="0" width="19" height="18">
<rect width="18.2369" height="18" fill="white"/>
</mask>
<g mask="url(#mask0_5_15016)">
<path fill-rule="evenodd" clip-rule="evenodd" d="M1.85156 16.2386L2.87511 12.5505C2.24366 11.4713 1.91159 10.2465 1.91197 8.99213C1.91387 5.06775 5.1494 1.875 9.12579 1.875C11.0555 1.87575 12.8662 2.61713 14.2283 3.96225C15.59 5.30775 16.34 7.09575 16.3392 8.99775C16.3377 12.9221 13.1014 16.1153 9.12579 16.1153C9.12541 16.1153 9.12579 16.1153 9.12579 16.1153H9.12275C7.9157 16.1149 6.72916 15.816 5.6756 15.2486L1.85156 16.2386Z" fill="white"/>
<path fill-rule="evenodd" clip-rule="evenodd" d="M1.84996 16.4261C1.79981 16.4261 1.75117 16.4066 1.71508 16.3706C1.66759 16.323 1.64897 16.2536 1.66683 16.1895L2.66948 12.576C2.0479 11.4863 1.72002 10.2488 1.72078 8.9925C1.7223 4.96425 5.04331 1.6875 9.12419 1.6875C11.1036 1.68825 12.9634 2.44913 14.3612 3.82988C15.759 5.211 16.5283 7.04625 16.5276 8.99775C16.5261 13.0256 13.2047 16.3028 9.12419 16.3028C7.91257 16.3024 6.71388 16.0073 5.65006 15.4489L1.89821 16.4198C1.88225 16.4243 1.86629 16.4261 1.84996 16.4261Z" fill="white"/>
<path fill-rule="evenodd" clip-rule="evenodd" d="M9.12384 1.87506C11.0535 1.87581 12.8643 2.61719 14.2264 3.96231C15.588 5.30781 16.338 7.09581 16.3373 8.99781C16.3358 12.9222 13.0995 16.1153 9.12384 16.1153H9.1208C7.91375 16.1149 6.72721 15.8161 5.67365 15.2487L1.84961 16.2387L2.87315 12.5506C2.2417 11.4713 1.90964 10.2466 1.91002 8.99219C1.91192 5.06781 5.14744 1.87506 9.12384 1.87506ZM9.12307 1.5C4.93771 1.5 1.53122 4.86075 1.52932 8.99213C1.52894 10.2548 1.85188 11.499 2.46434 12.6004L1.4822 16.14C1.44649 16.2694 1.48296 16.4074 1.57871 16.5026C1.6509 16.5746 1.74854 16.614 1.84884 16.614C1.88114 16.614 1.91343 16.6099 1.94534 16.6016L5.62577 15.6491C6.70023 16.1996 7.90462 16.4902 9.12003 16.4906C13.3084 16.4906 16.7149 13.1295 16.7168 8.99812C16.7176 6.996 15.9285 5.1135 14.495 3.6975C13.0607 2.28113 11.1531 1.50075 9.12307 1.5Z" fill="#CFD8DC"/>
<path fill-rule="evenodd" clip-rule="evenodd" d="M13.3659 4.8119C12.2337 3.69365 10.7287 3.07752 9.12694 3.07715C5.81998 3.07715 3.13043 5.73065 3.12891 8.9924C3.12853 10.1103 3.44539 11.1985 4.04569 12.1409L4.18854 12.3648L3.58255 14.5477L5.8519 13.9604L6.07112 14.0887C6.99132 14.6279 8.04678 14.9129 9.12276 14.9133H9.12504C12.4297 14.9133 15.1193 12.2594 15.1204 8.99727C15.1208 7.41665 14.4981 5.93015 13.3659 4.8119Z" fill="#40C351"/>
<path fill-rule="evenodd" clip-rule="evenodd" d="M7.31985 6.01695C7.18497 5.7207 7.04288 5.7147 6.91408 5.70945C6.80884 5.70495 6.68878 5.70533 6.56872 5.70533C6.44866 5.70533 6.25337 5.74995 6.0881 5.92808C5.92283 6.1062 5.45703 6.53633 5.45703 7.41158C5.45703 8.28683 6.10292 9.13283 6.19296 9.25133C6.28301 9.36983 7.43991 11.2235 9.27196 11.9367C10.7944 12.5292 11.1044 12.4115 11.4349 12.3818C11.7655 12.3522 12.5014 11.9517 12.6515 11.5362C12.8015 11.1207 12.8015 10.7648 12.7567 10.6906C12.7115 10.6163 12.5914 10.5721 12.4114 10.4828C12.2313 10.3936 11.3449 9.96345 11.1796 9.9042C11.0143 9.84495 10.8943 9.81533 10.7738 9.99345C10.6538 10.1712 10.3084 10.5721 10.2032 10.6906C10.0979 10.8095 9.99269 10.8245 9.8126 10.7352C9.63251 10.646 9.05197 10.4585 8.36315 9.85245C7.82744 9.38108 7.46574 8.7987 7.3605 8.62058C7.25526 8.44283 7.3491 8.34645 7.43953 8.25758C7.52046 8.1777 7.61962 8.04983 7.71004 7.94595C7.80009 7.84208 7.8301 7.76783 7.89013 7.64933C7.95016 7.53045 7.92015 7.42658 7.87493 7.3377C7.83048 7.24845 7.48018 6.3687 7.31985 6.01695Z" fill="white"/>
</g>
</svg>
