<?xml version="1.0" encoding="UTF-8" standalone="no"?>
<svg width="55px" height="48px" viewBox="0 0 55 48" version="1.1" xmlns="http://www.w3.org/2000/svg" xmlns:xlink="http://www.w3.org/1999/xlink">
    <!-- Generator: Sketch 41.2 (35397) - http://www.bohemiancoding.com/sketch -->
    <title>Analytics 2</title>
    <desc>Created with Sketch.</desc>
    <defs></defs>
    <g id="Page-1" stroke="none" stroke-width="1" fill="none" fill-rule="evenodd">
        <g id="Analytics-2" fill="#fff">
            <path d="M12.2,30.3 L9.9,28.4 L15.6,21.7 C18.2,18.6 23.1,17.6 26.7,19.4 L30.9,21.5 C33.2,22.7 36.7,22 38.4,20 L40.2,17.9 C42.3,15.4 45.5,11.6 47.2,9.4 L50.3,5.4 L52.7,7.3 L49.6,11.3 C47.9,13.5 44.7,17.3 42.5,19.9 L40.7,22 C38.1,25.1 33.2,26.1 29.6,24.3 L25.4,22.2 C23.1,21 19.6,21.7 17.9,23.7 L12.2,30.3 Z" id="Shape"></path>
            <polygon id="Shape" points="53.9 20.7 50.9 20.7 50.9 7.9 37.7 7.9 37.7 4.9 53.9 4.9"></polygon>
            <polygon id="Shape" points="55 47.7 0.5 47.7 0.5 0.2 3.5 0.2 3.5 44.7 55 44.7"></polygon>
        </g>
    </g>
</svg>