<svg width="24" height="28" viewBox="0 0 24 28" fill="none" xmlns="http://www.w3.org/2000/svg">
<path d="M21.3333 0.666626H4C2.392 0.666626 0 1.73196 0 4.66663V23.3333C0 26.268 2.392 27.3333 4 27.3333H24V24.6666H4.016C3.4 24.6506 2.66667 24.408 2.66667 23.3333C2.66667 23.1986 2.67867 23.0786 2.69867 22.9693C2.848 22.2013 3.47733 22.0133 4.016 22H24V3.33329C24 2.62605 23.719 1.94777 23.219 1.44767C22.7189 0.947577 22.0406 0.666626 21.3333 0.666626ZM21.3333 12.6666L18.6667 11.3333L16 12.6666V3.33329H21.3333V12.6666Z" fill="black"/>
</svg>
