<svg width="25" height="26" viewBox="0 0 25 26" fill="none" xmlns="http://www.w3.org/2000/svg">
<mask id="mask0" style="mask-type:alpha" maskUnits="userSpaceOnUse" x="0" y="0" width="25" height="26">
<rect y="0.0998535" width="25" height="25" rx="4" fill="white"/>
</mask>
<g mask="url(#mask0)">
<path fill-rule="evenodd" clip-rule="evenodd" d="M24.6152 12.5999C24.6152 5.9104 19.1904 0.485596 12.501 0.485596C5.81152 0.485596 0.386719 5.9104 0.386719 12.5999C0.386719 19.2893 5.81152 24.7141 12.501 24.7141C19.1904 24.7141 24.6152 19.2893 24.6152 12.5999Z" fill="#94A3B8" fill-opacity="0.509804"/>
<path fill-rule="evenodd" clip-rule="evenodd" d="M15.7801 18.0442C15.7117 17.9465 15.5847 17.9075 15.4724 17.9612C14.2713 18.5276 12.909 19.1282 12.6404 19.1819C12.6355 19.177 12.6209 19.1672 12.6111 19.1477C12.5769 19.0989 12.5574 19.0354 12.5574 18.9524C12.5574 18.2737 13.0701 16.2083 14.0808 12.8147C14.9353 9.96314 15.033 9.37231 15.033 9.177C15.033 8.87427 14.9158 8.62036 14.6961 8.4397C14.4861 8.2688 14.198 8.18091 13.8318 8.18091C13.2215 8.18091 12.5183 8.4104 11.6785 8.88892C10.8631 9.3479 9.94998 10.1291 8.97342 11.2083C8.89529 11.2913 8.89041 11.4182 8.95389 11.511C9.01736 11.6038 9.13943 11.6379 9.24686 11.5989C9.58865 11.4573 11.3172 10.7493 11.5711 10.593C11.7762 10.4661 11.9568 10.3977 12.1033 10.3977C12.1082 10.3977 12.1131 10.3977 12.1179 10.3977C12.1179 10.4075 12.1228 10.4221 12.1228 10.4416C12.1228 10.5881 12.0935 10.7688 12.0301 10.9641C10.5603 15.7297 9.84256 18.6545 9.84256 19.8997C9.84256 20.3391 9.96463 20.6907 10.2039 20.9495C10.448 21.2131 10.7801 21.345 11.1853 21.345C11.6199 21.345 12.1472 21.1643 12.8015 20.7883C13.4314 20.427 14.3982 19.6311 15.7508 18.3616C15.8338 18.2737 15.8484 18.1418 15.7801 18.0442ZM15.7314 4.23071C15.4922 3.98657 15.1846 3.85962 14.8184 3.85962C14.3643 3.85962 13.9639 4.04028 13.6367 4.39673C13.3145 4.74829 13.1533 5.1731 13.1533 5.67114C13.1533 6.06177 13.2754 6.38892 13.5098 6.63794C13.749 6.89184 14.0518 7.0188 14.4131 7.0188C14.8525 7.0188 15.2432 6.82837 15.585 6.45239C15.9219 6.0813 16.0928 5.65161 16.0928 5.16333C16.0928 4.78735 15.9707 4.47485 15.7314 4.23071Z" fill="#F1F5F9"/>
</g>
</svg>
