<?xml version="1.0" encoding="utf-8"?>
<!-- Generator: Adobe Illustrator 16.0.0, SVG Export Plug-In . SVG Version: 6.00 Build 0)  -->
<!DOCTYPE svg PUBLIC "-//W3C//DTD SVG 1.1//EN" "http://www.w3.org/Graphics/SVG/1.1/DTD/svg11.dtd">
<svg fill='white' version="1.1" id="Layer_1" xmlns="http://www.w3.org/2000/svg" xmlns:xlink="http://www.w3.org/1999/xlink" x="0px" y="0px"
	 width="24px" height="24px" viewBox="0 0 24 24" enable-background="new 0 0 24 24" xml:space="preserve">
<g>
	<path d="M16.197,12.512c1.683-1.271,2.777-3.283,2.777-5.551c0-3.838-3.122-6.961-6.96-6.961S5.054,3.123,5.054,6.961
		c0,2.268,1.096,4.279,2.779,5.551C5.44,13.77,3.66,16.253,3.66,18.605V24h16.68v-5.395C20.34,16.245,18.581,13.762,16.197,12.512z
		 M6.038,6.961c0-0.297,0.027-0.588,0.069-0.874c0.46-0.791,0.901-1.475,1.306-2.047C8.123,3.05,8.73,2.371,9.177,1.926
		c0.498-0.493,0.641-0.539,0.641-0.539s0.256,0.103,0.305,0.154c0.375,0.427,1.857,1.574,3.52,2.761
		c1.545,1.104,3.235,2.236,4.339,2.861c-0.108,3.202-2.74,5.775-5.967,5.775C8.719,12.938,6.038,10.257,6.038,6.961z M15.503,16.622
		l1.587,1.559l-3.615,3.927l-1.306,1.418c-0.003,0.005-0.006,0.007-0.01,0.012c-0.028,0.036-0.055,0.069-0.075,0.095
		c-0.036,0.055-0.058,0.086-0.058,0.086c-0.002-0.003-0.003-0.006-0.005-0.009c-0.002,0.002-0.007,0.009-0.007,0.009l-0.012-0.012
		l-0.011,0.012l0.006-0.019l-0.186-0.201l-1.429-1.551l-3.467-3.767l1.607-1.579l0.29-0.347l-0.45-0.15l-2.545-0.745l2.238-2.67
		l0.004-0.007c0.966,0.67,2.107,1.1,3.342,1.208l-0.271,0.287l-0.422,0.51l0.995,1.158c0,0-0.636,0.739-0.947,3.844l1.236,3.967
		c0.004,0.006,0.007,0.013,0.01,0.02l1.264-4.052c-0.321-3.081-0.995-3.778-0.995-3.778l0.975-1.134l-0.766-0.813
		c1.284-0.087,2.475-0.517,3.476-1.208l0.045,0.063l2.186,2.606l-2.504,0.733l-0.49,0.162L15.503,16.622z"/>
</g>
</svg>
