<svg width="28" height="26" viewBox="0 0 28 26" fill="none" xmlns="http://www.w3.org/2000/svg">
<path d="M25.3134 1H19.9907L20.6574 7.66667C20.6574 7.66667 21.9907 9 23.9907 9C25.0406 9.00138 26.0548 8.61921 26.8427 7.92533C26.926 7.8475 26.9881 7.74973 27.0231 7.64125C27.0581 7.53277 27.0648 7.41716 27.0427 7.30533L26.1014 1.66667C26.0699 1.48039 25.9735 1.31127 25.8293 1.18925C25.6851 1.06723 25.5023 1.00019 25.3134 1V1Z" stroke="black" stroke-width="1.5"/>
<path d="M19.9907 1L20.6574 7.66667C20.6574 7.66667 19.3241 9 17.3241 9C15.3241 9 13.9907 7.66667 13.9907 7.66667V1H19.9907Z" stroke="black" stroke-width="1.5"/>
<path d="M13.9906 1V7.66667C13.9906 7.66667 12.6573 9 10.6573 9C8.65731 9 7.32397 7.66667 7.32397 7.66667L7.99064 1H13.9906Z" stroke="black" stroke-width="1.5"/>
<path d="M7.99062 1H2.66929C2.47995 0.999929 2.29672 1.06702 2.15219 1.18933C2.00766 1.31164 1.9112 1.48126 1.87996 1.668L0.939956 7.30667C0.901289 7.536 0.966622 7.772 1.13996 7.92667C1.57729 8.31333 2.55462 9.00133 3.99062 9.00133C5.99062 9.00133 7.32396 7.668 7.32396 7.668L7.99062 1.00133V1Z" stroke="black" stroke-width="1.5"/>
<path d="M2 9V22.3333C2 23.0406 2.28095 23.7189 2.78105 24.219C3.28115 24.719 3.95942 25 4.66667 25H23.3333C24.0406 25 24.7189 24.719 25.219 24.219C25.719 23.7189 26 23.0406 26 22.3333V9" stroke="black" stroke-width="1.5"/>
<path d="M17.7773 24.9987V16.9987C17.7773 16.2915 17.4964 15.6132 16.9963 15.1131C16.4962 14.613 15.8179 14.332 15.1107 14.332H12.444C11.7368 14.332 11.0585 14.613 10.5584 15.1131C10.0583 15.6132 9.77734 16.2915 9.77734 16.9987V24.9987" stroke="black" stroke-width="1.5" stroke-miterlimit="16"/>
</svg>
