<svg width="19" height="16" viewBox="0 0 19 16" fill="none" xmlns="http://www.w3.org/2000/svg">
<path fill-rule="evenodd" clip-rule="evenodd" d="M13.9075 0.3C13.451 -0.1 12.7663 -0.1 12.3098 0.3L0.897068 10.3C0.668814 10.5 0.554688 10.7 0.554688 11V15C0.554688 15.6 1.0112 16 1.69596 16H6.26104C6.60342 16 6.83167 15.9 7.05993 15.7L18.4726 5.7C18.9291 5.3 18.9291 4.7 18.4726 4.3L13.9075 0.3ZM5.80422 14H2.83691V11.4L9.68453 5.40002L12.6518 8.00002L5.80422 14ZM11.2832 4.00002L14.2505 6.60002L16.0765 5.00002L13.1092 2.40002L11.2832 4.00002Z" fill="#64748B"/>
</svg>
