<svg width="15" height="15" viewBox="0 0 15 15" fill="none" xmlns="http://www.w3.org/2000/svg">
<path fill-rule="evenodd" clip-rule="evenodd" d="M7.59531 0.599976C3.7881 0.599976 0.695312 3.69276 0.695312 7.49998C0.695312 11.3072 3.7881 14.4 7.59531 14.4C11.4025 14.4 14.4953 11.3072 14.4953 7.49998C14.4953 3.69276 11.4025 0.599976 7.59531 0.599976ZM7.59492 1.19995C11.0779 1.19995 13.8949 4.017 13.8949 7.49995C13.8949 10.9829 11.0779 13.8 7.59492 13.8C4.11197 13.8 1.29492 10.9829 1.29492 7.49995C1.29492 4.017 4.11197 1.19995 7.59492 1.19995ZM7.29512 3.90002V7.20002H3.99512V7.80002H7.29512V11.1H7.89512V7.80002H11.1951V7.20002H7.89512V3.90002H7.29512Z" fill="black"/>
</svg>
