<svg width="27" height="24" viewBox="0 0 27 24" fill="none" xmlns="http://www.w3.org/2000/svg">
<path d="M17.2568 11.9932V22.0357M17.2568 11.9932C17.9576 10.3368 19.8805 7.25336 21.9654 8.17074C24.0504 9.08813 23.2048 11.1013 22.5214 11.9932M17.2568 11.9932H22.5214M17.2568 11.9932C16.753 10.8465 15.4812 8.4766 14.4248 8.17074C13.1043 7.78842 10.1159 7.92769 11.7838 11.9932M17.2568 11.9932H11.7838M17.2568 22.0357H9.24707V11.9932H11.7838M17.2568 22.0357H25.2666V11.9932H22.5214" stroke="black" stroke-width="2" stroke-linejoin="round"/>
<path d="M13.3335 5.0462H7.33337M5.34282 21.9942H1.33325V5.0462H7.33337M7.33337 5.0462V0.837646M7.33337 5.0462L2.98262 2.43002M7.33337 5.0462L11.6557 2.43002" stroke="black" stroke-width="2" stroke-linejoin="round"/>
</svg>
