<?xml version="1.0" ?>
<svg data-name="019_transport" id="_019_transport" viewBox="0 0 24 24" xmlns="http://www.w3.org/2000/svg"><defs><style>.cls-1{fill:#fff;}</style></defs>
<path class="cls-1" d="M6,22a3,3,0,1,1,3-3A3,3,0,0,1,6,22Zm0-4a1,1,0,1,0,1,1A1,1,0,0,0,6,18Z"/>
<path class="cls-1" d="M19,22a3,3,0,1,1,3-3A3,3,0,0,1,19,22Zm0-4a1,1,0,1,0,1,1A1,1,0,0,0,19,18Z"/>
<path class="cls-1" d="M4,20a1,1,0,0,1-1-1V7A1,1,0,0,0,2,6,1,1,0,0,1,2,4,3,3,0,0,1,5,7V19A1,1,0,0,1,4,20Z"/>
<path class="cls-1" d="M19,18H6a1,1,0,0,1,0-2H19a1,1,0,0,1,0,2Z"/>
<path class="cls-1" d="M20,18H9a1,1,0,0,1,0-2H19V6H9v8a1,1,0,0,1-2,0V5A1,1,0,0,1,8,4H20a1,1,0,0,1,1,1V17A1,1,0,0,1,20,18Z"/></svg>