<svg width="30" height="28" viewBox="0 0 30 28" fill="none" xmlns="http://www.w3.org/2000/svg">
<path d="M26.3134 2H20.9907L21.6574 8.66667C21.6574 8.66667 22.9907 10 24.9907 10C26.0406 10.0014 27.0548 9.61921 27.8427 8.92533C27.926 8.8475 27.9881 8.74973 28.0231 8.64125C28.0581 8.53277 28.0648 8.41716 28.0427 8.30533L27.1014 2.66667C27.0699 2.48039 26.9735 2.31127 26.8293 2.18925C26.6851 2.06723 26.5023 2.00019 26.3134 2V2Z" stroke="white" stroke-width="3"/>
<path d="M20.9907 2L21.6574 8.66667C21.6574 8.66667 20.3241 10 18.3241 10C16.3241 10 14.9907 8.66667 14.9907 8.66667V2H20.9907Z" stroke="white" stroke-width="3"/>
<path d="M14.9906 2V8.66667C14.9906 8.66667 13.6573 10 11.6573 10C9.65731 10 8.32397 8.66667 8.32397 8.66667L8.99064 2H14.9906Z" stroke="white" stroke-width="3"/>
<path d="M8.99062 2H3.66929C3.47995 1.99993 3.29672 2.06702 3.15219 2.18933C3.00766 2.31164 2.9112 2.48126 2.87996 2.668L1.93996 8.30667C1.90129 8.536 1.96662 8.772 2.13996 8.92667C2.57729 9.31333 3.55462 10.0013 4.99062 10.0013C6.99062 10.0013 8.32396 8.668 8.32396 8.668L8.99062 2.00133V2Z" stroke="white" stroke-width="3"/>
<path d="M3 10V23.3333C3 24.0406 3.28095 24.7189 3.78105 25.219C4.28115 25.719 4.95942 26 5.66667 26H24.3333C25.0406 26 25.7189 25.719 26.219 25.219C26.719 24.7189 27 24.0406 27 23.3333V10" stroke="white" stroke-width="3"/>
<path d="M18.7773 25.9987V17.9987C18.7773 17.2915 18.4964 16.6132 17.9963 16.1131C17.4962 15.613 16.8179 15.332 16.1107 15.332H13.444C12.7368 15.332 12.0585 15.613 11.5584 16.1131C11.0583 16.6132 10.7773 17.2915 10.7773 17.9987V25.9987" stroke="white" stroke-width="3" stroke-miterlimit="16"/>
</svg>
