<svg width="32" height="32" viewBox="0 0 32 32" fill="none" xmlns="http://www.w3.org/2000/svg">
<path d="M28.8402 21.9344H10.2309L11.1652 20.0312L26.6902 20.0031C27.2152 20.0031 27.6652 19.6281 27.759 19.1094L29.909 7.075C29.9652 6.75937 29.8809 6.43438 29.6746 6.1875C29.5727 6.066 29.4455 5.96813 29.302 5.90068C29.1585 5.83323 29.002 5.79781 28.8434 5.79688L9.09336 5.73125L8.92461 4.9375C8.81836 4.43125 8.36211 4.0625 7.84336 4.0625H3.01523C2.72267 4.0625 2.44208 4.17872 2.23521 4.3856C2.02833 4.59247 1.91211 4.87306 1.91211 5.16563C1.91211 5.45819 2.02833 5.73878 2.23521 5.94565C2.44208 6.15253 2.72267 6.26875 3.01523 6.26875H6.94961L7.68711 9.775L9.50274 18.5656L7.16524 22.3813C7.04385 22.5451 6.97073 22.7396 6.95416 22.9429C6.93759 23.1461 6.97823 23.3499 7.07149 23.5312C7.25899 23.9031 7.63711 24.1375 8.05586 24.1375H10.0184C9.59998 24.6932 9.374 25.37 9.37461 26.0656C9.37461 27.8344 10.8121 29.2719 12.5809 29.2719C14.3496 29.2719 15.7871 27.8344 15.7871 26.0656C15.7871 25.3687 15.5559 24.6906 15.1434 24.1375H20.1777C19.7594 24.6932 19.5334 25.37 19.534 26.0656C19.534 27.8344 20.9715 29.2719 22.7402 29.2719C24.509 29.2719 25.9465 27.8344 25.9465 26.0656C25.9465 25.3687 25.7152 24.6906 25.3027 24.1375H28.8434C29.4496 24.1375 29.9465 23.6437 29.9465 23.0344C29.9447 22.7421 29.8273 22.4624 29.6201 22.2564C29.4128 22.0503 29.1325 21.9345 28.8402 21.9344V21.9344ZM9.55274 7.90625L27.5465 7.96562L25.784 17.8344L11.6496 17.8594L9.55274 7.90625ZM12.5809 27.0531C12.0371 27.0531 11.5934 26.6094 11.5934 26.0656C11.5934 25.5219 12.0371 25.0781 12.5809 25.0781C13.1246 25.0781 13.5684 25.5219 13.5684 26.0656C13.5684 26.3275 13.4643 26.5787 13.2791 26.7639C13.0939 26.9491 12.8428 27.0531 12.5809 27.0531V27.0531ZM22.7402 27.0531C22.1965 27.0531 21.7527 26.6094 21.7527 26.0656C21.7527 25.5219 22.1965 25.0781 22.7402 25.0781C23.284 25.0781 23.7277 25.5219 23.7277 26.0656C23.7277 26.3275 23.6237 26.5787 23.4385 26.7639C23.2533 26.9491 23.0021 27.0531 22.7402 27.0531V27.0531Z" fill="black"/>
</svg>
