<svg viewBox="0 0 23 24" fill="none" xmlns="http://www.w3.org/2000/svg">
<rect y="21.6334" width="22.7916" height="2.16332" fill="#475569"/>
<path d="M3.79731 19.47H5.69661C6.22082 19.47 6.64626 18.9855 6.64626 18.3884V8.65344C6.64626 8.05636 6.22082 7.57178 5.69661 7.57178H3.79731C3.2731 7.57178 2.84766 8.05636 2.84766 8.65344V18.3884C2.84766 18.9855 3.2731 19.47 3.79731 19.47Z" fill="#94A3B8"/>
<path d="M10.4457 19.47H12.345C12.8693 19.47 13.2947 18.9854 13.2947 18.3884V3.24511C13.2947 2.64804 12.8693 2.16345 12.345 2.16345H10.4457C9.92154 2.16345 9.49609 2.64804 9.49609 3.24511V18.3884C9.49609 18.9854 9.92154 19.47 10.4457 19.47Z" fill="#94A3B8"/>
<path d="M16.1445 12.9799V18.3882C16.1445 18.9852 16.57 19.4698 17.0942 19.4698H18.9935C19.5177 19.4698 19.9431 18.9852 19.9431 18.3882V12.9799C19.9431 12.3828 19.5177 11.8982 18.9935 11.8982H17.0942C16.57 11.8982 16.1445 12.3828 16.1445 12.9799Z" fill="#94A3B8"/>
</svg>
