<svg viewBox="0 0 25 25" fill="none" xmlns="http://www.w3.org/2000/svg">
<path fill-rule="evenodd" clip-rule="evenodd" d="M12.5 0C5.60729 0 0 5.60729 0 12.5C0 19.3927 5.60729 25 12.5 25C19.3927 25 25 19.3927 25 12.5C25 5.60729 19.3927 0 12.5 0Z" fill="#94A3B8"/>
<path fill-rule="evenodd" clip-rule="evenodd" d="M12.5 3.125C7.33047 3.125 3.125 7.33047 3.125 12.5C3.125 17.6695 7.33047 21.875 12.5 21.875C17.6695 21.875 21.875 17.6695 21.875 12.5C21.875 7.33047 17.6695 3.125 12.5 3.125Z" fill="#475569"/>
<path d="M12.5 15.6249C10.7771 15.6249 9.375 14.2228 9.375 12.4999C9.375 12.0186 9.49271 11.5686 9.6875 11.1613L6.25 6.24988L11.1604 9.68842C11.5688 9.49363 12.0188 9.37488 12.5 9.37488C14.2229 9.37488 15.625 10.777 15.625 12.4999C15.625 14.2228 14.2229 15.6249 12.5 15.6249Z" fill="#94A3B8"/>
</svg>
