<svg viewBox="0 0 27 27" fill="none" xmlns="http://www.w3.org/2000/svg">
<path d="M23.3387 8.41025C22.868 8.41025 22.4865 8.02868 22.4865 7.55798C22.4865 6.61658 21.7233 5.85342 20.7819 5.85342C20.3113 5.85342 19.9297 5.47185 19.9297 5.00115C19.9297 4.53045 20.3113 4.14887 20.7819 4.14887C21.7233 4.14887 22.4865 3.38572 22.4865 2.44432C22.4865 1.97362 22.868 1.59204 23.3387 1.59204C23.8094 1.59204 24.191 1.97362 24.191 2.44432C24.191 3.38572 24.9541 4.14887 25.8955 4.14887C26.3662 4.14887 26.7478 4.53045 26.7478 5.00115C26.7478 5.47185 26.3662 5.85342 25.8955 5.85342C24.9541 5.85342 24.191 6.61658 24.191 7.55798C24.191 7.78401 24.1012 8.00079 23.9414 8.16063C23.7815 8.32046 23.5648 8.41025 23.3387 8.41025Z" fill="#475569"/>
<path d="M5.15905 26.592C4.68835 26.592 4.30678 26.2104 4.30678 25.7397C4.30678 24.7983 3.54364 24.0352 2.60226 24.0352C2.13157 24.0352 1.75 23.6536 1.75 23.1829C1.75 22.7122 2.13157 22.3306 2.60226 22.3306C3.54364 22.3306 4.30678 21.5675 4.30678 20.6261C4.30678 20.1554 4.68835 19.7738 5.15905 19.7738C5.62974 19.7738 6.01131 20.1554 6.01131 20.6261C6.01131 21.5675 6.77445 22.3306 7.71583 22.3306C8.18652 22.3306 8.56809 22.7122 8.56809 23.1829C8.56809 23.6536 8.18652 24.0352 7.71583 24.0352C6.77445 24.0352 6.01131 24.7983 6.01131 25.7397C6.01131 26.2104 5.62974 26.592 5.15905 26.592Z" fill="#475569"/>
<path d="M19.9314 26.592C19.3038 26.592 18.795 26.0832 18.795 25.4556C18.795 22.9452 16.76 20.9101 14.2496 20.9101C13.622 20.9101 13.1133 20.4014 13.1133 19.7738C13.1133 19.1462 13.622 18.6374 14.2496 18.6374C16.76 18.6374 18.795 16.6023 18.795 14.0919C18.795 13.4643 19.3038 12.9556 19.9314 12.9556C20.559 12.9556 21.0677 13.4643 21.0677 14.0919C21.0677 16.6023 23.1028 18.6374 25.6131 18.6374C26.2407 18.6374 26.7495 19.1462 26.7495 19.7738C26.7495 20.4014 26.2407 20.9101 25.6131 20.9101C23.1028 20.9101 21.0677 22.9452 21.0677 25.4556C21.0677 26.0832 20.559 26.592 19.9314 26.592Z" fill="#94A3B8"/>
<path d="M8.56809 15.2285C7.9405 15.2285 7.43174 14.7197 7.43174 14.0921C7.43174 11.5817 5.3967 9.54662 2.88635 9.54662C2.48037 9.54662 2.10523 9.33003 1.90224 8.97844C1.69925 8.62684 1.69925 8.19366 1.90224 7.84207C2.10523 7.49048 2.48037 7.27388 2.88635 7.27388C5.3967 7.27388 7.43174 5.23881 7.43174 2.72841C7.43174 2.10081 7.9405 1.59204 8.56809 1.59204C9.19568 1.59204 9.70444 2.10081 9.70444 2.72841C9.70444 5.23881 11.7395 7.27388 14.2498 7.27388C14.8774 7.27388 15.3862 7.78265 15.3862 8.41025C15.3862 9.03785 14.8774 9.54662 14.2498 9.54662C11.7395 9.54662 9.70444 11.5817 9.70444 14.0921C9.70444 14.7197 9.19568 15.2285 8.56809 15.2285Z" fill="#94A3B8"/>
</svg>
