<svg viewBox="0 0 26 26" fill="none" xmlns="http://www.w3.org/2000/svg">
<path fill-rule="evenodd" clip-rule="evenodd" d="M19.518 13.2157C19.518 11.4898 20.9171 10.0907 22.643 10.0907C24.3689 10.0907 25.768 11.4898 25.768 13.2157C25.768 14.9416 24.3689 16.3407 22.643 16.3407C22.1787 16.3384 21.7209 16.2316 21.3035 16.0282L14.0044 23.3273L12.5312 21.8541L19.8304 14.555C19.6271 14.1377 19.5203 13.6799 19.518 13.2157Z" fill="#475569"/>
<path fill-rule="evenodd" clip-rule="evenodd" d="M8.23541 16.0839L5.67235 13.5209L4.19922 14.994L10.4572 21.2519C10.254 21.6692 10.1473 22.1268 10.145 22.5909C10.145 24.3168 11.5441 25.7159 13.27 25.7159C14.9959 25.7159 16.395 24.3168 16.395 22.5909C16.395 20.865 14.9959 19.4659 13.27 19.4659C12.8056 19.4682 12.3478 19.575 11.9304 19.7784L8.23561 16.0836C8.23554 16.0837 8.23547 16.0838 8.23541 16.0839Z" fill="#94A3B8"/>
<path fill-rule="evenodd" clip-rule="evenodd" d="M14.0044 4.57738L12.5312 3.10425L5.23282 10.4026C4.81576 10.1996 4.35837 10.0931 3.89452 10.0908C2.16864 10.0908 0.769531 11.4899 0.769531 13.2158C0.769531 14.9416 2.16864 16.3408 3.89452 16.3408C5.62041 16.3408 7.01952 14.9416 7.01952 13.2158C7.01723 12.7514 6.91042 12.2936 6.70702 11.8762L10.4018 8.18141C10.4015 8.18121 10.4012 8.18102 10.4009 8.18082L14.0044 4.57738Z" fill="#475569"/>
<path fill-rule="evenodd" clip-rule="evenodd" d="M13.2695 6.96579C13.7334 6.96351 14.1907 6.85692 14.6078 6.65393L19.8225 11.8686C20.1304 11.2251 20.652 10.7033 21.2955 10.3953L19.7759 8.87576L19.7768 8.87516L16.082 5.18038C16.2854 4.76298 16.3922 4.30513 16.3945 3.84081C16.3945 2.11492 14.9954 0.71582 13.2695 0.71582C11.5436 0.71582 10.1445 2.11492 10.1445 3.84081C10.1445 5.56669 11.5436 6.96579 13.2695 6.96579Z" fill="#94A3B8"/>
</svg>
