<svg viewBox="0 0 26 27" fill="none" xmlns="http://www.w3.org/2000/svg">
<path fill-rule="evenodd" clip-rule="evenodd" d="M1.0413 14.7567L0.803125 15.5362C0.767708 15.651 0.75 15.7714 0.75 15.893V24.9839C0.75 25.6112 1.21667 26.1203 1.79167 26.1203H24.7083C25.2833 26.1203 25.75 25.6112 25.75 24.9839V15.893C25.75 15.7714 25.7323 15.651 25.6969 15.5362L25.4587 14.7567H17.4167V19.3021H9.08333V14.7567H1.0413Z" fill="#94A3B8"/>
<path fill-rule="evenodd" clip-rule="evenodd" d="M22.625 4.5293H3.875L0.75 14.7566H25.75L22.625 4.5293ZM17.4193 14.757H9.08594V19.3024H17.4193V14.757Z" fill="#475569"/>
<path d="M14.2943 1.12073V9.0753H17.4193L13.2526 14.7571L9.08594 9.0753H12.2109V1.12073H14.2943Z" fill="#94A3B8"/>
</svg>
